<?xml version="1.0" encoding="UTF-8" standalone="no"?>
<!-- Uploaded to: SVG Repo, www.svgrepo.com, Generator: SVG Repo Mixer Tools -->

<svg width="24" height="24" fill="none" />
  <path
     d="M 0.20999277,0.28499989 0.36,0.35999963 M 0.20998559,0.28499989 V 0.43499938 L 0.36,0.50999912 M 0.20999277,0.28499997 0.36,0.21000023 0.51001441,0.28499997 M 0.36,0.35999971 0.51000723,0.28499997 M 0.36,0.35999971 V 0.50999912 M 0.51001441,0.28499997 V 0.43499945 L 0.36,0.50999919 M 0.23999424,0.12000069 h -0.0599964 c -0.0331424,0 -0.0599964,0.0268626 -0.0599964,0.0599998 v 0.0599998 m 0.12000841,0.35999868 h -0.0599964 c -0.0331423,0 -0.0599964,-0.0268619 -0.0599964,-0.0599998 V 0.47999937 M 0.48000576,0.12000054 h 0.0599964 c 0.0331424,0 0.0599964,0.0268626 0.0599964,0.0599998 v 0.0599998 m -0.12000841,0.3599986 h 0.0599964 c 0.0331423,0 0.0599964,-0.0268619 0.0599964,-0.0599998 v -0.0599998"
     stroke="#000000"
     stroke-width="0.0600015"
     stroke-linecap="round"
     stroke-linejoin="round"
     id="path0"
   />
   <path
     d="M 0.20999277,0.28499989 0.36,0.35999963 M 0.20998559,0.28499989 V 0.43499938 L 0.36,0.50999912 M 0.20999277,0.28499997 0.36,0.21000023 0.51001441,0.28499997 M 0.36,0.35999971 0.51000723,0.28499997 M 0.36,0.35999971 V 0.50999912 M 0.51001441,0.28499997 V 0.43499945 L 0.36,0.50999919 M 0.23999424,0.12000069 h -0.0599964 c -0.0331424,0 -0.0599964,0.0268626 -0.0599964,0.0599998 v 0.0599998 m 0.12000841,0.35999868 h -0.0599964 c -0.0331423,0 -0.0599964,-0.0268619 -0.0599964,-0.0599998 V 0.47999937 M 0.48000576,0.12000054 h 0.0599964 c 0.0331424,0 0.0599964,0.0268626 0.0599964,0.0599998 v 0.0599998 m -0.12000841,0.3599986 h 0.0599964 c 0.0331423,0 0.0599964,-0.0268619 0.0599964,-0.0599998 v -0.0599998"
     stroke="#000000"
     stroke-width="0.0600015"
     stroke-linecap="round"
     stroke-linejoin="round"
     id="path0"
   />
   <path
     d="M 0.20999277,0.28499989 0.36,0.35999963 M 0.20998559,0.28499989 V 0.43499938 L 0.36,0.50999912 M 0.20999277,0.28499997 0.36,0.21000023 0.51001441,0.28499997 M 0.36,0.35999971 0.51000723,0.28499997 M 0.36,0.35999971 V 0.50999912 M 0.51001441,0.28499997 V 0.43499945 L 0.36,0.50999919 M 0.23999424,0.12000069 h -0.0599964 c -0.0331424,0 -0.0599964,0.0268626 -0.0599964,0.0599998 v 0.0599998 m 0.12000841,0.35999868 h -0.0599964 c -0.0331423,0 -0.0599964,-0.0268619 -0.0599964,-0.0599998 V 0.47999937 M 0.48000576,0.12000054 h 0.0599964 c 0.0331424,0 0.0599964,0.0268626 0.0599964,0.0599998 v 0.0599998 m -0.12000841,0.3599986 h 0.0599964 c 0.0331423,0 0.0599964,-0.0268619 0.0599964,-0.0599998 v -0.0599998"
     stroke="#000000"
     stroke-width="0.0600015"
     stroke-linecap="round"
     stroke-linejoin="round"
     id="path0"
   />
   <path
     d="M 0.20999277,0.28499989 0.36,0.35999963 M 0.20998559,0.28499989 V 0.43499938 L 0.36,0.50999912 M 0.20999277,0.28499997 0.36,0.21000023 0.51001441,0.28499997 M 0.36,0.35999971 0.51000723,0.28499997 M 0.36,0.35999971 V 0.50999912 M 0.51001441,0.28499997 V 0.43499945 L 0.36,0.50999919 M 0.23999424,0.12000069 h -0.0599964 c -0.0331424,0 -0.0599964,0.0268626 -0.0599964,0.0599998 v 0.0599998 m 0.12000841,0.35999868 h -0.0599964 c -0.0331423,0 -0.0599964,-0.0268619 -0.0599964,-0.0599998 V 0.47999937 M 0.48000576,0.12000054 h 0.0599964 c 0.0331424,0 0.0599964,0.0268626 0.0599964,0.0599998 v 0.0599998 m -0.12000841,0.3599986 h 0.0599964 c 0.0331423,0 0.0599964,-0.0268619 0.0599964,-0.0599998 v -0.0599998"
     stroke="#000000"
     stroke-width="0.0600015"
     stroke-linecap="round"
     stroke-linejoin="round"
     id="path0"
   />
   <path
     d="M 0.20999277,0.28499989 0.36,0.35999963 M 0.20998559,0.28499989 V 0.43499938 L 0.36,0.50999912 M 0.20999277,0.28499997 0.36,0.21000023 0.51001441,0.28499997 M 0.36,0.35999971 0.51000723,0.28499997 M 0.36,0.35999971 V 0.50999912 M 0.51001441,0.28499997 V 0.43499945 L 0.36,0.50999919 M 0.23999424,0.12000069 h -0.0599964 c -0.0331424,0 -0.0599964,0.0268626 -0.0599964,0.0599998 v 0.0599998 m 0.12000841,0.35999868 h -0.0599964 c -0.0331423,0 -0.0599964,-0.0268619 -0.0599964,-0.0599998 V 0.47999937 M 0.48000576,0.12000054 h 0.0599964 c 0.0331424,0 0.0599964,0.0268626 0.0599964,0.0599998 v 0.0599998 m -0.12000841,0.3599986 h 0.0599964 c 0.0331423,0 0.0599964,-0.0268619 0.0599964,-0.0599998 v -0.0599998"
     stroke="#000000"
     stroke-width="0.0600015"
     stroke-linecap="round"
     stroke-linejoin="round"
     id="path0"
   />
</svg>
